<?xml version="1.0" encoding="UTF-8"?>
<!DOCTYPE svg PUBLIC "-//W3C//DTD SVG 1.1//EN" "http://www.w3.org/Graphics/SVG/1.1/DTD/svg11.dtd">
<!-- Creator: CorelDRAW X6 -->
<svg xmlns="http://www.w3.org/2000/svg" xml:space="preserve" width="2.91666in" height="3.06944in" version="1.1" style="shape-rendering:geometricPrecision; text-rendering:geometricPrecision; image-rendering:optimizeQuality; fill-rule:evenodd; clip-rule:evenodd"
viewBox="0 0 2917 3069"
 xmlns:xlink="http://www.w3.org/1999/xlink">
 <defs>
  <style type="text/css">
   <![CDATA[
    .fil0 {fill:#A9373F;fill-rule:nonzero}
   ]]>
  </style>
 </defs>
 <g id="Layer_x0020_1">
  <metadata id="CorelCorpID_0Corel-Layer"/>
  <path class="fil0" d="M534 492c159,-135 351,-239 568,-301 672,-193 1368,116 1691,704 0,0 59,83 48,53 -217,-571 -759,-940 -1350,-950l-50 0c-125,2 -252,21 -378,57 -701,201 -1135,878 -1054,1579 0,0 31,55 30,9 -5,-170 17,-332 61,-483 0,0 12,-34 4,-43 -7,-9 -23,-8 -20,13 2,21 2,22 -11,34 -12,12 -24,19 -19,34 4,16 17,47 -3,54 -20,7 -20,-18 -12,-38 8,-19 10,-39 19,-57 8,-18 -3,-41 13,-55 16,-14 35,2 39,-11 3,-13 -22,-44 -3,-40 19,4 37,-17 37,-17 48,-120 112,-232 190,-333 0,0 28,-27 9,-22 -19,5 -57,46 -64,59 -7,13 -26,62 -38,59 -13,-2 -9,-14 -19,-17 -11,-3 -22,-14 -3,-32 19,-18 35,-7 35,-22 -1,-15 37,-11 33,-31 -4,-21 -6,-31 13,-31 19,-1 32,-3 34,-21 2,-18 -31,-36 0,-41 31,-5 37,-6 33,-14 -4,-9 18,-34 30,-24 12,10 35,32 37,9 3,-24 1,-29 7,-54 6,-25 -9,-23 21,-31 30,-9 51,-17 50,-31 0,-14 10,-38 24,-22 14,15 12,13 -10,37 -22,23 -55,32 -40,40 14,8 48,-19 48,-19z"/>
  <path class="fil0" d="M2821 2049c19,-47 34,-94 47,-143 3,-11 34,6 26,23 -8,17 5,10 20,14 16,5 -3,85 -3,85 -140,460 -503,842 -1000,985 -694,199 -1407,-140 -1721,-762 -21,-42 67,45 67,45 191,279 473,481 791,577 0,0 49,24 49,36 0,12 2,16 15,17 12,1 23,-1 19,17 -3,18 -21,46 0,41 20,-5 31,1 27,-17 -4,-18 8,-11 23,2 16,12 17,24 35,6 19,-19 56,-50 89,-39 33,11 45,15 62,26 16,11 37,29 43,12 6,-17 0,-29 26,-26 26,3 32,-10 38,-10 6,1 47,-3 54,-4 7,-1 46,12 6,22 -39,10 -36,18 -7,20 28,3 62,18 75,-7 13,-25 -13,28 6,39 19,11 41,34 49,16 8,-18 -19,-36 2,-32 20,4 30,24 40,4 10,-20 14,-13 41,-12 27,1 65,1 41,-21 -24,-22 -46,-27 -66,-9 -20,18 -32,-14 -48,8 -17,22 -38,20 -46,8 -8,-12 -3,-27 -20,-21 -17,6 -26,-18 1,-16 27,2 17,2 32,8 15,5 22,-9 39,-6 17,2 13,-17 27,-20 24,-6 50,-9 74,-14 0,0 41,-7 48,5 7,11 21,16 50,5 28,-11 48,-17 49,-22 1,-5 36,-22 47,-8 11,15 31,20 36,4 5,-16 36,-27 34,-39 -2,-11 -28,-16 -28,-16 31,-12 60,-25 90,-38 0,0 54,21 13,32 -41,11 -13,18 -34,29 -21,11 -44,40 -21,36 23,-4 17,16 45,-6 29,-21 33,-40 75,-40 42,0 48,5 78,-27 29,-32 51,-29 67,-36 16,-7 33,-12 54,-42 21,-30 47,-52 62,-55 16,-3 59,-22 44,-34 -14,-13 -39,20 -45,-4 -6,-24 7,-35 24,-39 17,-5 59,-28 61,-44 1,-16 38,-42 20,-50 -18,-8 -6,-29 -6,-29 25,-26 50,-53 73,-81 0,0 37,-39 36,-6 -1,33 -25,55 7,33 32,-22 11,-41 36,-54 25,-13 31,-4 30,12 -1,16 32,5 20,-21 -11,-27 -14,-23 3,-38 17,-16 31,-49 8,-36 -23,13 -58,4 -16,-26 42,-30 92,-65 76,-78 -16,-14 -32,-26 -16,-44 15,-18 51,-21 62,-45 11,-25 -2,-36 19,-49 20,-13 49,-43 30,-57 -20,-14 -9,30 -26,14 -17,-17 -21,-29 -24,1 -2,30 -48,76 -38,42l4 0z"/>
  <path class="fil0" d="M1385 2445c-247,-31 -467,-164 -609,-366 0,0 7,-14 10,-8 3,6 7,7 11,6 5,0 8,10 8,10 140,157 334,260 543,287 0,0 22,2 24,7 2,6 2,15 -9,11 -11,-4 -41,-8 -37,2 4,10 11,22 -2,19 -13,-3 -24,-12 -37,-12 -13,0 -30,-1 -32,-12 -2,-11 -12,-25 -23,-16 -11,9 -7,26 9,30 16,4 24,-1 29,7 5,8 11,14 29,10 18,-4 26,1 41,1 16,0 48,20 62,15 14,-5 6,13 -17,10z"/>
  <path class="fil0" d="M820 1010c-80,95 -138,207 -172,327 0,0 -9,9 -17,0 -7,-9 -9,22 -22,28 -13,6 -15,-13 -15,-13 16,-92 46,-180 90,-261 0,0 31,-12 32,-23 0,-11 -2,-19 16,-19 18,0 26,6 35,-17 9,-23 18,-34 37,-39 19,-5 16,18 16,18z"/>
  <path class="fil0" d="M1583 700c-108,-11 -221,-2 -332,30 -148,42 -276,120 -378,222 0,0 -25,7 -35,11 -10,4 2,-22 0,-45 -2,-22 -18,1 -21,11 -3,9 -8,13 -21,14 -13,1 -12,9 -10,17 2,8 -10,17 -28,24 -19,7 37,-57 37,-57 108,-124 251,-219 421,-268 16,-5 32,-9 48,-12 0,0 37,-2 54,5 18,7 38,5 47,0 9,-5 31,-20 39,-6 9,13 13,23 42,18 30,-5 93,-11 114,-1 21,10 17,30 29,27 12,-4 36,15 23,17 -13,2 -31,-5 -31,-5z"/>
  <path class="fil0" d="M2129 934c-171,-201 -426,-317 -694,-310 0,0 -4,20 14,16 18,-4 31,-14 49,-7 18,7 38,16 48,9 10,-7 27,-20 34,4 7,23 17,17 29,13 12,-4 23,3 24,21 1,18 -21,30 4,27 25,-4 75,6 84,-6 9,-12 3,-33 14,-16 11,17 24,20 35,18 11,-2 72,19 32,20 -40,1 -49,-2 -58,-10 -10,-8 -62,3 -62,3 152,33 292,106 406,211 0,0 3,6 13,11 10,4 19,-4 20,6 1,11 9,-10 9,-10z"/>
  <path class="fil0" d="M2370 1621c-19,351 -249,668 -598,785l-12 -4c0,0 -14,15 -17,7 -3,-7 -19,-11 -25,1 -6,13 -18,4 -33,-6 -15,-10 -16,-3 -23,22 -6,25 -18,-38 -22,-27 -4,11 -17,-2 -38,-1 -20,1 -36,9 -55,15 -19,5 -13,-6 -4,-17 9,-11 13,-11 -1,-15 -13,-5 -17,13 -16,23 0,10 -21,14 -39,14 -18,-1 -28,-8 -42,-22 -15,-14 3,-14 3,-14 84,1 169,-10 253,-34 317,-91 543,-345 613,-644 0,0 28,-28 27,-36 -1,-8 20,-21 10,-33 -11,-11 -4,-29 7,-29 11,0 12,17 12,17z"/>
  <path class="fil0" d="M316 1408c-53,-7 -77,-8 -80,17 -3,25 19,31 73,38 52,7 76,7 79,-17 3,-25 -19,-31 -71,-38zm113 -45l-9 62c-1,4 -1,8 -1,13 0,4 0,9 -1,13 -9,64 -44,68 -116,58 -55,-8 -108,-15 -98,-87 10,-72 63,-65 118,-57 45,6 63,17 75,36l1 -1c-1,-7 -5,-19 -4,-23l3 -18 32 5z"/>
  <path class="fil0" d="M439 1279l0 1c10,11 12,23 7,38 -5,19 -21,32 -41,26l-114 -33 11 -40 98 28c13,4 23,4 26,-9 4,-13 -5,-18 -18,-21l-98 -28 11 -40 113 33c9,3 19,5 28,7l-12 41 -14 -4z"/>
  <path class="fil0" d="M446 1168c10,4 22,8 27,-5 10,-22 -22,-32 -37,-38 -7,19 -15,32 9,43zm47 -62c8,4 17,6 26,9l-15 35 -19 -6 0 1c10,14 12,28 5,44 -11,26 -35,27 -59,17 -45,-19 -32,-55 -16,-90l-10 -5c-12,-5 -21,-7 -26,7 -6,13 4,18 15,23l-16 37c-16,-7 -25,-17 -27,-28 -3,-11 0,-25 6,-39 21,-48 44,-45 69,-35l68 29z"/>
  <polygon class="fil0" points="369,950 553,1052 534,1088 349,986 "/>
  <path class="fil0" d="M594 986l-22 35 -124 -80 22 -35 124 80zm-177 -115l27 18 -22 35 -27 -18 22 -35z"/>
  <path class="fil0" d="M486 884l10 -13 -19 -14 10 -44 33 25 13 -17 20 15 -13 17 63 47c9,7 15,11 23,1 2,-2 3,-4 4,-6l20 15c-3,5 -6,10 -12,18 -21,28 -43,18 -50,13l-72 -54 -10 13 -20 -15z"/>
  <polygon class="fil0" points="678,879 541,809 569,779 659,833 660,832 598,746 625,717 737,895 708,927 "/>
  <path class="fil0" d="M743 586l0 0 39 85 34 -25 -72 -60zm34 187l-80 -203 46 -35 172 134 -37 28 -37 -30 -48 36 18 45 -35 26z"/>
  <path class="fil0" d="M967 642l-35 21 -75 -127 35 -21 74 127zm-107 -182l16 28 -35 21 -16 -28 35 -21z"/>
  <path class="fil0" d="M966 477l8 17 1 0c-1,-19 10,-29 25,-36l16 33c-34,14 -25,33 -19,46l35 72 -37 18 -64 -133 35 -17z"/>
  <path class="fil0" d="M1117 472c-7,-21 -15,-26 -27,-21 -16,6 -13,21 -2,50 15,42 22,50 36,45 12,-4 14,-17 7,-36l39 -14c14,38 -1,61 -37,74 -50,18 -68,-10 -83,-53 -14,-38 -20,-72 31,-91 36,-13 62,-4 75,32l-39 14z"/>
  <path class="fil0" d="M1214 389l5 18 1 0c3,-18 16,-26 32,-30l9 36c-36,6 -31,27 -28,41l19 78 -40 10 -35 -143 38 -9z"/>
  <path class="fil0" d="M1330 469c1,10 5,23 18,21 24,-3 16,-35 13,-51 -20,4 -35,4 -32,30zm78 8c1,9 4,18 6,27l-38 5 -4 -19 -1 0c-7,16 -17,25 -35,28 -28,4 -42,-16 -45,-41 -7,-48 30,-55 68,-60l-2 -11c-2,-12 -5,-21 -19,-19 -14,2 -14,13 -12,24l-40 6c-2,-18 1,-30 10,-38 8,-8 21,-13 37,-15 52,-7 61,14 65,41l10 73z"/>
  <path class="fil0" d="M1496 315c-17,-1 -20,6 -19,21l1 18 19 -1 1 25 -19 1 5 122 -41 2 -5 -122 -18 1 -1 -25 19 -1c-2,-42 -6,-65 44,-67 5,0 10,0 15,0l1 26z"/>
  <path class="fil0" d="M1506 353l17 1 1 -23 42 -17 -1 42 21 1 -1 25 -21 -1 -2 79c0,11 -1,18 13,19 3,0 5,0 7,0l-1 25c-6,0 -11,1 -21,1 -36,-1 -39,-25 -39,-34l3 -91 -17 -1 1 -25z"/>
  <path class="fil0" d="M1723 401l19 4c17,3 25,-13 28,-26 4,-20 -3,-29 -17,-32l-19 -4 -11 57zm-23 117l-43 -9 41 -207 80 16c29,6 45,28 38,64 -5,26 -19,44 -48,43l0 1c9,3 37,11 29,48 -3,13 -9,52 -7,62l-42 -8c-3,-14 1,-28 3,-41 5,-25 11,-45 -22,-52l-11 -2 -17 86z"/>
  <path class="fil0" d="M1908 481c5,-14 12,-33 -7,-39 -18,-6 -25,15 -29,27l36 12zm-43 10c-6,17 -14,42 4,47 14,5 21,-8 25,-19l39 13c-6,15 -15,26 -27,31 -12,5 -28,6 -46,0 -50,-17 -46,-50 -32,-94 13,-38 30,-69 81,-51 52,18 47,54 30,98l-75 -25z"/>
  <path class="fil0" d="M2048 536c10,-20 8,-29 -4,-34 -16,-8 -24,6 -37,33 -20,40 -21,51 -7,57 12,6 22,-2 31,-19l37 18c-18,36 -45,42 -79,25 -48,-23 -40,-55 -20,-97 18,-36 38,-65 87,-41 34,17 46,41 29,76l-37 -18z"/>
  <path class="fil0" d="M2170 627c17,-26 24,-39 9,-49 -15,-10 -24,3 -41,28 -25,38 -27,48 -14,56 13,8 21,2 46,-35zm-67 -41c22,-34 46,-59 91,-29 45,30 31,62 9,95 -25,39 -49,62 -93,33 -44,-29 -32,-60 -7,-99z"/>
  <path class="fil0" d="M2304 641l-12 15 0 0c17,-8 31,-3 43,7l-23 28c-26,-25 -40,-9 -50,2l-51 62 -32 -26 93 -114 30 25z"/>
  <path class="fil0" d="M2355 787c21,-21 36,-35 24,-47 -13,-13 -27,2 -48,23 -26,26 -36,39 -25,49 10,10 23,1 49,-25zm-52 54l12 -11 0 0c-16,5 -27,0 -38,-11 -30,-30 5,-62 26,-84 21,-21 53,-54 82,-24 10,11 15,21 12,36l0 0 55 -54 29 29 -150 148 -27 -28z"/>
  <path class="fil0" d="M2405 886c-6,4 -10,8 -13,13 -2,5 -1,10 4,16 5,6 13,9 21,3 25,-19 -25,-72 12,-101 25,-19 52,0 68,21 17,22 22,50 -4,68l-25 -32c8,-6 12,-11 13,-15 0,-4 -1,-7 -4,-10 -6,-7 -13,-7 -21,-1 -18,14 27,71 -11,100 -20,16 -48,11 -69,-16 -22,-28 -29,-53 4,-76l25 32z"/>
  <path class="fil0" d="M278 1667l77 268c24,84 87,103 135,89 54,-15 85,-67 68,-126l-83 -288 24 -7 84 291c21,73 -19,132 -85,151 -56,16 -95,1 -136,-40 -13,57 -39,90 -94,106 -66,19 -131,-10 -152,-83l-84 -291 24 -7 83 288c17,59 71,86 124,70 48,-14 92,-63 68,-147l-77 -268 24 -7z"/>
  <path class="fil0" d="M739 1714c81,-23 139,22 157,86 18,63 -12,128 -102,154l-104 30 -7 -23 112 -32c72,-21 90,-77 75,-124 -16,-52 -61,-86 -128,-66l-101 29 -54 -188 199 -57 6 21 -176 50 41 144 81 -23z"/>
  <path class="fil0" d="M1231 1822l-43 -151c-14,-50 -64,-64 -109,-51 -54,16 -76,68 -61,119 14,50 63,81 114,66 28,-8 46,-30 57,-56l17 58c-15,20 -31,37 -65,46 -77,22 -150,-26 -173,-105 -22,-76 13,-152 99,-176 83,-24 150,11 172,89l42 146 -49 14z"/>
  <path class="fil0" d="M1481 1461l-23 273c-2,27 -13,33 -30,38 -17,5 -30,5 -46,-16l-164 -219 54 -15 138 185 18 -230 54 -15z"/>
  <path class="fil0" d="M1603 1716l-77 -268 49 -14 77 268 -49 14zm-78 -364c19,-5 34,6 38,21 4,15 -2,33 -21,38 -19,5 -34,-6 -38,-21 -4,-15 2,-33 21,-38z"/>
  <path class="fil0" d="M1944 1618l-43 -151c-14,-50 -64,-64 -109,-51 -54,16 -76,68 -61,119 14,50 63,81 114,66 28,-8 46,-30 57,-56l17 58c-15,20 -31,37 -65,47 -77,22 -150,-26 -173,-105 -22,-76 13,-152 99,-176 83,-24 149,12 172,89l42 146 -49 14z"/>
  <path class="fil0" d="M2130 1325l-96 28 40 141c7,25 21,30 46,23l59 -17 13 47 -66 19c-50,14 -89,-11 -104,-64l-71 -248 49 -14 19 67 96 -28 13 47z"/>
  <path class="fil0" d="M2254 1529l-77 -268 49 -14 77 268 -49 14zm-78 -364c19,-5 34,6 38,21 4,15 -2,33 -21,38 -19,5 -34,-6 -38,-21 -4,-15 2,-33 21,-38z"/>
  <path class="fil0" d="M2500 1414c51,-15 77,-63 61,-118 -16,-55 -63,-82 -114,-68 -51,15 -77,63 -61,118 16,55 63,82 114,68zm-67 -232c74,-21 155,17 179,100 24,83 -25,158 -99,179 -74,21 -155,-17 -179,-100 -24,-83 25,-158 99,-179z"/>
  <path class="fil0" d="M2692 1403l-45 -156c-20,-70 15,-131 81,-150 65,-19 128,14 148,84l45 156 -49 14 -45 -156c-12,-41 -50,-62 -85,-52 -35,10 -57,48 -45,89l45 156 -49 14z"/>
  <polygon class="fil0" points="701,2255 803,2353 779,2379 710,2312 675,2347 740,2410 716,2435 651,2373 612,2413 683,2482 659,2507 555,2407 "/>
  <path class="fil0" d="M836 2505c5,-8 0,-17 -8,-23 -10,-7 -16,-7 -22,1 -13,19 63,56 31,101 -18,26 -60,17 -82,1 -28,-20 -45,-48 -26,-76l33 23c-6,10 -1,21 9,28 10,7 20,8 27,-1 7,-10 -8,-26 -14,-32 -19,-22 -37,-42 -17,-69 18,-25 56,-15 77,0 25,18 40,42 23,70l-32 -23z"/>
  <path class="fil0" d="M939 2523l14 -26 46 7 -21 39 29 15 -14 26 -29 -15 -32 60c-9,17 -9,23 5,30 4,2 9,4 13,6l-12 23c-5,0 -27,-9 -32,-12 -30,-16 -28,-35 -13,-63l34 -64 -26 -14 14 -26 26 14z"/>
  <path class="fil0" d="M1040 2682c-4,11 1,23 13,27 23,8 33,-17 39,-33 -14,-6 -43,-17 -51,6zm-13 -68c7,-17 18,-25 31,-27 14,-2 29,1 44,6 28,10 55,32 40,73l-28 75c-2,7 -3,11 -4,16l-37 -14c2,-7 3,-13 5,-19l-1 0c-15,12 -32,14 -50,7 -26,-9 -39,-31 -30,-58 4,-10 16,-31 45,-33 19,-1 40,6 56,12l5 -13c2,-6 2,-19 -13,-24 -14,-5 -24,6 -26,13l-39 -15z"/>
  <path class="fil0" d="M1253 2765c27,5 36,-20 40,-42 4,-22 6,-48 -22,-53 -23,-4 -36,22 -40,42 -4,20 -1,49 22,53zm-39 -197l43 8 -15 80 1 0c10,-10 27,-16 42,-14 45,9 60,50 53,89 -7,37 -34,72 -76,64 -19,-4 -33,-14 -39,-33l-1 0c-1,7 -3,13 -5,20l-43 -8c2,-9 5,-19 7,-28l34 -178z"/>
  <polygon class="fil0" points="1441,2600 1428,2811 1385,2808 1398,2598 "/>
  <path class="fil0" d="M1531 2600l1 38 -47 1 -1 -38 47 -1zm0 64l4 146 -44 1 -4 -146 44 -1z"/>
  <path class="fil0" d="M1660 2691c-2,-10 -12,-13 -22,-11 -12,2 -17,6 -16,15 3,23 84,-2 92,53 4,32 -32,53 -59,57 -34,5 -65,-5 -70,-38l40 -6c2,11 13,16 26,14 12,-2 20,-8 19,-19 -2,-12 -23,-14 -32,-14 -29,-3 -55,-5 -60,-39 -4,-30 31,-49 56,-52 31,-4 58,3 65,35l-39 5z"/>
  <path class="fil0" d="M1779 2778l-60 -202 42 -12 23 78 1 0c5,-15 15,-28 37,-34 14,-4 44,-2 55,17 5,8 8,17 9,22l27 91 -42 13 -25 -84c-5,-15 -14,-31 -35,-25 -13,4 -21,19 -16,40l25 84 -42 13z"/>
  <path class="fil0" d="M2022 2590c-7,-14 -17,-26 -37,-17 -18,9 -16,24 -9,39l46 -22zm-33 48c8,17 18,32 39,22 14,-7 18,-15 16,-29l35 -17c12,34 -8,57 -38,72 -45,22 -76,5 -97,-39 -19,-40 -11,-81 29,-101 25,-12 49,-14 71,4 7,6 13,13 18,20 5,8 9,16 13,25l-86 42z"/>
  <path class="fil0" d="M2199 2559c19,-14 9,-41 -2,-58 -12,-16 -34,-35 -54,-21 -23,16 -11,39 2,58 13,18 31,37 54,21zm-82 -170l36 -25 105 148c6,8 12,15 18,23l-36 25c-5,-5 -9,-11 -13,-16l0 0c2,20 -7,36 -22,46 -35,25 -75,4 -96,-27 -23,-32 -26,-77 11,-103 12,-9 30,-11 44,-5l0 0 -47 -66z"/>
  <path class="fil0" d="M2364 2398c-3,-27 3,-126 -20,-145 -11,-9 -27,-9 -36,2 -11,12 -4,30 7,40l-29 34c-33,-26 -26,-63 -1,-92 23,-27 58,-42 88,-16 38,32 22,110 28,152l0 0 64 -75 22 19 -93 109 -31 -27z"/>
  <path class="fil0" d="M2408 2117c-15,24 47,60 52,62 4,3 63,42 78,18 15,-24 -47,-59 -51,-62 -4,-3 -64,-42 -79,-18zm154 96c-29,47 -85,31 -126,5 -42,-26 -82,-68 -53,-115 30,-49 86,-32 128,-6 42,26 82,68 52,116z"/>
  <path class="fil0" d="M2469 2018c0,-20 -3,-39 -8,-58l16 -38 186 78 -17 40 -146 -61c4,18 6,36 6,54l-37 -15z"/>
  <path class="fil0" d="M2652 1910c-15,-23 -54,-114 -83,-121 -14,-3 -28,4 -32,18 -4,16 10,29 24,32l-11 43c-41,-8 -51,-45 -42,-81 8,-34 33,-63 71,-54 48,12 69,88 94,123l0 -1 23 -96 28 7 -34 139 -40 -10z"/>
 </g>
</svg>
